<svg width="382" height="318" viewBox="0 0 382 318" fill="none" xmlns="http://www.w3.org/2000/svg">

<rect x="106.088" y="113.438" width="67.043" height="54.0652" transform="rotate(-44.586 106.088 113.438)" fill="#CC3967"/>
<circle cx="131.37" cy="91.5249" r="33.52" transform="rotate(-46.3095 131.37 91.5249)" fill="#CC3967"/>
<rect width="67.043" height="54.0652" transform="matrix(-0.712197 -0.701979 -0.701979 0.712197 276.824 113.438)" fill="#06773F"/>
<circle cx="33.52" cy="33.52" r="33.52" transform="matrix(-0.690763 -0.723081 -0.723081 0.690763 298.934 92.6082)" fill="#06773F"/>
<rect x="148.004" y="156.465" width="20" height="20" transform="rotate(-46.31 148.004 156.465)" fill="#06773F"/>
<rect x="190.004" y="144.912" width="22" height="22" transform="rotate(-46.31 190.004 144.912)" fill="#CC3967"/>
<rect x="181" y="188.569" width="16" height="16" transform="rotate(-46.31 181 188.569)" fill="#06773F"/>
<rect x="169.002" y="176.805" width="9" height="9" transform="rotate(-46.31 169.002 176.805)" fill="#CC3967"/>
<rect x="180" y="165.508" width="9" height="9" transform="rotate(-46.31 180 165.508)" fill="#06773F"/>
<rect x="176" y="151.508" width="9" height="9" transform="rotate(-46.31 176 151.508)" fill="#06773F"/>
<rect x="171.002" y="135.509" width="9" height="9" transform="rotate(-46.31 171.002 135.509)" fill="#CC3967"/>
<rect x="186.002" y="122.509" width="9" height="9" transform="rotate(-46.31 186.002 122.509)" fill="#06773F"/>
<rect x="206" y="174.508" width="9" height="9" transform="rotate(-46.31 206 174.508)" fill="#CC3967"/>
<rect x="219.002" y="156.509" width="12" height="12" transform="rotate(-46.31 219.002 156.509)" fill="#06773F"/>
<path d="M96.93 233.333C96.118 232.424 95.509 231.535 95.103 230.665C94.7163 229.795 94.523 228.867 94.523 227.881C94.523 226.837 94.7163 225.88 95.103 225.01C95.509 224.14 96.06 223.386 96.756 222.748C97.452 222.11 98.2543 221.617 99.163 221.269C100.091 220.902 101.067 220.718 102.092 220.718C102.885 220.718 103.658 220.824 104.412 221.037C105.185 221.23 105.852 221.52 106.413 221.907L104.673 224.72C104.286 224.507 103.89 224.353 103.484 224.256C103.097 224.14 102.682 224.082 102.237 224.082C101.483 224.082 100.816 224.246 100.236 224.575C99.656 224.884 99.2017 225.319 98.873 225.88C98.5637 226.441 98.409 227.088 98.409 227.823C98.409 228.422 98.5153 228.983 98.728 229.505C98.96 230.027 99.3273 230.568 99.83 231.129L96.93 233.333ZM93.102 234V230.636H107.805V234H93.102ZM116.103 234V230.636H119.409V234H116.103ZM112.246 234V213.497H116.103V234H112.246ZM119.409 234V230.636C119.525 230.636 119.612 230.675 119.67 230.752C119.747 230.829 119.805 230.945 119.844 231.1C119.902 231.255 119.94 231.438 119.96 231.651C119.979 231.844 119.989 232.067 119.989 232.318C119.989 232.569 119.979 232.801 119.96 233.014C119.94 233.227 119.902 233.41 119.844 233.565C119.805 233.7 119.747 233.807 119.67 233.884C119.612 233.961 119.525 234 119.409 234ZM140.489 234V230.636H143.534V234H140.489ZM120.276 234V230.636H140.518L137.241 233.478V227.388C137.241 226.286 137.096 225.406 136.806 224.749C136.516 224.072 136.091 223.579 135.53 223.27C134.989 222.961 134.331 222.806 133.558 222.806C132.727 222.806 131.944 222.97 131.209 223.299C130.474 223.628 129.778 224.053 129.121 224.575C128.483 225.097 127.893 225.658 127.352 226.257C126.811 226.856 126.327 227.436 125.902 227.997C125.477 228.538 125.109 229.002 124.8 229.389L123.93 226.576C124.723 225.571 125.457 224.633 126.134 223.763C126.83 222.893 127.555 222.139 128.309 221.501C129.063 220.844 129.894 220.341 130.803 219.993C131.712 219.626 132.765 219.442 133.964 219.442C135.259 219.442 136.352 219.664 137.241 220.109C138.15 220.534 138.894 221.124 139.474 221.878C140.054 222.632 140.47 223.483 140.721 224.43C140.972 225.377 141.098 226.363 141.098 227.388V234H120.276ZM122.277 230.636V213.497H126.134V230.636H122.277ZM120.276 234C120.16 234 120.073 233.961 120.015 233.884C119.938 233.807 119.88 233.7 119.841 233.565C119.783 233.41 119.744 233.227 119.725 233.014C119.706 232.801 119.696 232.569 119.696 232.318C119.696 231.97 119.715 231.68 119.754 231.448C119.793 231.197 119.86 231.003 119.957 230.868C120.034 230.713 120.141 230.636 120.276 230.636V234ZM143.534 234V230.636C143.65 230.636 143.747 230.675 143.824 230.752C143.901 230.829 143.959 230.945 143.998 231.1C144.037 231.255 144.066 231.438 144.085 231.651C144.104 231.844 144.114 232.067 144.114 232.318C144.114 232.569 144.104 232.801 144.085 233.014C144.066 233.227 144.037 233.41 143.998 233.565C143.959 233.7 143.901 233.807 143.824 233.884C143.747 233.961 143.65 234 143.534 234ZM144.397 234V230.636H150.545C151.376 230.636 152.179 230.481 152.952 230.172C153.725 229.843 154.431 229.418 155.069 228.896C155.726 228.355 156.297 227.765 156.78 227.127C157.283 226.47 157.669 225.803 157.94 225.126C158.23 224.449 158.375 223.811 158.375 223.212V221.356L160.231 224.43C159.226 223.889 158.201 223.483 157.157 223.212C156.113 222.941 155.117 222.806 154.17 222.806C153.242 222.806 152.246 222.941 151.183 223.212C150.139 223.483 149.124 223.889 148.138 224.43L149.994 221.356V223.212C149.994 223.811 150.129 224.449 150.4 225.126C150.69 225.803 151.077 226.47 151.56 227.127C152.043 227.765 152.614 228.355 153.271 228.896C153.928 229.418 154.644 229.843 155.417 230.172C156.19 230.481 156.983 230.636 157.795 230.636H163.769V234H159.013C157.505 234 156.094 233.758 154.779 233.275C153.464 232.792 152.275 232.154 151.212 231.361C150.149 230.549 149.23 229.669 148.457 228.722C147.703 227.755 147.123 226.798 146.717 225.851C146.311 224.884 146.108 224.005 146.108 223.212V221.559C146.939 221.095 147.819 220.708 148.747 220.399C149.694 220.09 150.632 219.858 151.56 219.703C152.507 219.529 153.377 219.442 154.17 219.442C154.982 219.442 155.852 219.529 156.78 219.703C157.708 219.858 158.636 220.09 159.564 220.399C160.511 220.708 161.401 221.095 162.232 221.559V223.212C162.232 224.005 162.029 224.884 161.623 225.851C161.217 226.798 160.627 227.755 159.854 228.722C159.1 229.669 158.191 230.549 157.128 231.361C156.065 232.154 154.876 232.792 153.561 233.275C152.246 233.758 150.835 234 149.327 234H144.397ZM144.397 234C144.281 234 144.194 233.961 144.136 233.884C144.059 233.807 144.001 233.7 143.962 233.565C143.904 233.41 143.865 233.227 143.846 233.014C143.827 232.801 143.817 232.569 143.817 232.318C143.817 231.97 143.836 231.68 143.875 231.448C143.914 231.197 143.981 231.003 144.078 230.868C144.155 230.713 144.262 230.636 144.397 230.636V234ZM163.769 234V230.636C163.885 230.636 163.982 230.675 164.059 230.752C164.136 230.829 164.194 230.945 164.233 231.1C164.272 231.255 164.301 231.438 164.32 231.651C164.339 231.844 164.349 232.067 164.349 232.318C164.349 232.569 164.339 232.801 164.32 233.014C164.301 233.227 164.272 233.41 164.233 233.565C164.194 233.7 164.136 233.807 164.059 233.884C163.982 233.961 163.885 234 163.769 234ZM167.915 234V213.497H171.801V234H167.915ZM164.638 234V230.636H167.915V234H164.638ZM164.638 234C164.522 234 164.435 233.961 164.377 233.884C164.3 233.807 164.242 233.7 164.203 233.565C164.145 233.41 164.107 233.227 164.087 233.014C164.068 232.801 164.058 232.569 164.058 232.318C164.058 231.97 164.078 231.68 164.116 231.448C164.155 231.197 164.223 231.003 164.319 230.868C164.397 230.713 164.503 230.636 164.638 230.636V234ZM177.322 234V213.497H181.179V234H177.322ZM200.211 234C198.567 234 197.214 233.739 196.151 233.217C195.087 232.695 194.295 231.902 193.773 230.839C193.27 229.776 193.019 228.432 193.019 226.808C193.019 225.184 193.27 223.831 193.773 222.748C194.295 221.646 195.087 220.824 196.151 220.283C197.214 219.722 198.567 219.442 200.211 219.442H206.765V232.173H202.879V221.965L203.836 222.806H200.211C199.418 222.806 198.78 222.903 198.297 223.096C197.813 223.27 197.456 223.647 197.224 224.227C197.011 224.788 196.905 225.648 196.905 226.808C196.905 227.91 197.001 228.741 197.195 229.302C197.407 229.843 197.755 230.201 198.239 230.375C198.722 230.549 199.379 230.636 200.211 230.636H209.81V234H200.211ZM209.81 234V230.636C209.926 230.636 210.013 230.675 210.071 230.752C210.148 230.829 210.206 230.945 210.245 231.1C210.303 231.255 210.341 231.438 210.361 231.651C210.38 231.844 210.39 232.067 210.39 232.318C210.39 232.569 210.38 232.801 210.361 233.014C210.341 233.227 210.303 233.41 210.245 233.565C210.206 233.7 210.148 233.807 210.071 233.884C210.013 233.961 209.926 234 209.81 234ZM195.89 216.774V213.468H199.631V216.774H195.89ZM201.168 216.774V213.468H204.909V216.774H201.168ZM219.152 234V230.636H222.777V234H219.152ZM222.777 234V230.636C222.873 230.636 222.96 230.675 223.038 230.752C223.115 230.829 223.173 230.945 223.212 231.1C223.25 231.255 223.279 231.438 223.299 231.651C223.337 231.844 223.357 232.067 223.357 232.318C223.357 232.569 223.337 232.801 223.299 233.014C223.279 233.227 223.25 233.41 223.212 233.565C223.173 233.7 223.115 233.807 223.038 233.884C222.98 233.961 222.893 234 222.777 234ZM210.684 234C210.568 234 210.481 233.961 210.423 233.884C210.345 233.807 210.287 233.7 210.249 233.565C210.191 233.41 210.152 233.227 210.133 233.014C210.113 232.801 210.104 232.569 210.104 232.318C210.104 231.97 210.123 231.68 210.162 231.448C210.2 231.197 210.268 231.003 210.365 230.868C210.442 230.713 210.548 230.636 210.684 230.636V234ZM210.684 234V230.636H217.557L215.295 232.521V219.442H219.152V234H210.684ZM211.728 240.177V236.871H215.469V240.177H211.728ZM217.006 240.177V236.871H220.747V240.177H217.006ZM226.923 234V213.497H230.809V234H226.923ZM223.646 234V230.636H226.923V234H223.646ZM223.646 234C223.53 234 223.443 233.961 223.385 233.884C223.308 233.807 223.25 233.7 223.211 233.565C223.153 233.41 223.115 233.227 223.095 233.014C223.076 232.801 223.066 232.569 223.066 232.318C223.066 231.97 223.086 231.68 223.124 231.448C223.163 231.197 223.231 231.003 223.327 230.868C223.405 230.713 223.511 230.636 223.646 230.636V234ZM246.655 234V230.636H249.7V234H246.655ZM234.881 234V230.636H245.408L242.769 232.927V228.055C242.769 226.682 242.624 225.619 242.334 224.865C242.063 224.111 241.599 223.579 240.942 223.27C240.304 222.961 239.424 222.806 238.303 222.806H235.954V219.442H238.303C240.081 219.442 241.589 219.732 242.827 220.312C244.083 220.892 245.031 221.82 245.669 223.096C246.326 224.353 246.655 226.006 246.655 228.055V234H234.881ZM249.7 234V230.636C249.816 230.636 249.912 230.675 249.99 230.752C250.067 230.829 250.125 230.945 250.164 231.1C250.202 231.255 250.231 231.438 250.251 231.651C250.27 231.844 250.28 232.067 250.28 232.318C250.28 232.569 250.27 232.801 250.251 233.014C250.231 233.227 250.202 233.41 250.164 233.565C250.125 233.7 250.067 233.807 249.99 233.884C249.912 233.961 249.816 234 249.7 234ZM259.031 234V230.636H262.656V234H259.031ZM262.656 234V230.636C262.753 230.636 262.84 230.675 262.917 230.752C262.995 230.829 263.053 230.945 263.091 231.1C263.13 231.255 263.159 231.438 263.178 231.651C263.217 231.844 263.236 232.067 263.236 232.318C263.236 232.569 263.217 232.801 263.178 233.014C263.159 233.227 263.13 233.41 263.091 233.565C263.053 233.7 262.995 233.807 262.917 233.884C262.859 233.961 262.772 234 262.656 234ZM250.563 234C250.447 234 250.36 233.961 250.302 233.884C250.225 233.807 250.167 233.7 250.128 233.565C250.07 233.41 250.032 233.227 250.012 233.014C249.993 232.801 249.983 232.569 249.983 232.318C249.983 231.97 250.003 231.68 250.041 231.448C250.08 231.197 250.148 231.003 250.244 230.868C250.322 230.713 250.428 230.636 250.563 230.636V234ZM250.563 234V230.636H257.436L255.174 232.521V219.442H259.031V234H250.563ZM251.607 240.177V236.871H255.348V240.177H251.607ZM256.885 240.177V236.871H260.626V240.177H256.885ZM263.526 234V230.636H285.45L282.173 233.478V227.388C282.173 226.286 282.028 225.406 281.738 224.749C281.448 224.072 281.023 223.579 280.462 223.27C279.921 222.961 279.263 222.806 278.49 222.806C277.659 222.806 276.866 222.97 276.112 223.299C275.377 223.628 274.691 224.053 274.053 224.575C273.415 225.097 272.825 225.658 272.284 226.257C271.743 226.856 271.259 227.436 270.834 227.997C270.409 228.538 270.041 229.002 269.732 229.389L268.862 226.576C269.616 225.667 270.293 224.836 270.892 224.082C271.491 223.328 272.062 222.661 272.603 222.081C273.164 221.501 273.744 221.018 274.343 220.631C274.962 220.244 275.629 219.954 276.344 219.761C277.079 219.548 277.929 219.442 278.896 219.442C280.191 219.442 281.293 219.664 282.202 220.109C283.111 220.534 283.845 221.124 284.406 221.878C284.986 222.632 285.402 223.483 285.653 224.43C285.924 225.377 286.059 226.363 286.059 227.388V234H263.526ZM267.18 230.636V219.442H271.066V230.636H267.18ZM263.526 234C263.41 234 263.323 233.961 263.265 233.884C263.188 233.807 263.13 233.7 263.091 233.565C263.033 233.41 262.994 233.227 262.975 233.014C262.956 232.801 262.946 232.569 262.946 232.318C262.946 231.97 262.965 231.68 263.004 231.448C263.043 231.197 263.11 231.003 263.207 230.868C263.284 230.713 263.391 230.636 263.526 230.636V234Z" fill="#06773F"/>
<path d="M57.116 264L65.12 244.657H69.847L77.851 264H73.037L71.181 259.505H63.815L61.959 264H57.116ZM67.498 249.297L64.743 256.054H70.253L67.498 249.297ZM83.757 264H79.871V244.657H83.757V264ZM93.0262 264L101.03 244.657H105.757L113.761 264H108.947L107.091 259.505H99.7252L97.8692 264H93.0262ZM103.408 249.297L100.653 256.054H106.163L103.408 249.297ZM116.796 249.877V244.657H120.682V249.877H124.278V252.893H120.682V258.026C120.682 259.244 120.808 260.046 121.059 260.433C121.33 260.8 121.891 260.984 122.741 260.984H124.278V264H121.465C119.745 264 118.536 263.604 117.84 262.811C117.144 262.018 116.796 260.646 116.796 258.693V252.893H114.331V249.877H116.796ZM127.954 249.877V244.657H131.84V249.877H135.436V252.893H131.84V258.026C131.84 259.244 131.966 260.046 132.217 260.433C132.488 260.8 133.049 260.984 133.899 260.984H135.436V264H132.623C130.903 264 129.694 263.604 128.998 262.811C128.302 262.018 127.954 260.646 127.954 258.693V252.893H125.489V249.877H127.954ZM147.842 255.416V255.184C147.842 254.314 147.629 253.715 147.204 253.386C146.778 253.057 146.005 252.893 144.884 252.893H138.33V249.877H144.884C146.643 249.877 147.871 249.974 148.567 250.167C149.263 250.36 149.862 250.757 150.365 251.356C150.887 251.955 151.244 252.603 151.438 253.299C151.631 253.976 151.728 254.894 151.728 256.054V264H143.55C141.964 264 140.911 263.961 140.389 263.884C139.886 263.807 139.248 263.488 138.475 262.927C137.701 262.366 137.315 261.322 137.315 259.795C137.315 258.809 137.547 257.949 138.011 257.214C138.475 256.479 139.074 255.996 139.809 255.764C140.543 255.532 141.636 255.416 143.086 255.416H147.842ZM147.842 258.432H143.347H142.709C141.742 258.432 141.259 258.867 141.259 259.737C141.259 260.182 141.413 260.501 141.723 260.694C142.051 260.887 142.593 260.984 143.347 260.984H147.842V258.432ZM158.709 244.657V248.021L156.476 252.4H154.707L156.476 248.427H155.2V244.657H158.709ZM171.886 255.416V255.184C171.886 254.314 171.673 253.715 171.248 253.386C170.822 253.057 170.049 252.893 168.928 252.893H162.374V249.877H168.928C170.687 249.877 171.915 249.974 172.611 250.167C173.307 250.36 173.906 250.757 174.409 251.356C174.931 251.955 175.288 252.603 175.482 253.299C175.675 253.976 175.772 254.894 175.772 256.054V264H167.594C166.008 264 164.955 263.961 164.433 263.884C163.93 263.807 163.292 263.488 162.519 262.927C161.745 262.366 161.359 261.322 161.359 259.795C161.359 258.809 161.591 257.949 162.055 257.214C162.519 256.479 163.118 255.996 163.853 255.764C164.587 255.532 165.68 255.416 167.13 255.416H171.886ZM171.886 258.432H167.391H166.753C165.786 258.432 165.303 258.867 165.303 259.737C165.303 260.182 165.457 260.501 165.767 260.694C166.095 260.887 166.637 260.984 167.391 260.984H171.886V258.432ZM190.815 257.243V264H186.697V244.657H196.354C198.055 244.657 199.292 244.773 200.066 245.005C200.858 245.237 201.699 245.846 202.589 246.832C203.497 247.818 203.952 249.191 203.952 250.95C203.952 251.994 203.768 252.951 203.401 253.821C203.033 254.672 202.531 255.368 201.893 255.909C201.255 256.45 200.626 256.808 200.008 256.982C199.408 257.156 198.548 257.243 197.427 257.243H190.815ZM190.815 253.792H196.412C197.494 253.792 198.268 253.57 198.732 253.125C199.196 252.68 199.428 251.917 199.428 250.834C199.428 249.867 199.205 249.171 198.761 248.746C198.316 248.321 197.562 248.108 196.499 248.108H190.815V253.792ZM210.405 244.657V249.877H214.378C216.466 249.877 217.955 250.283 218.844 251.095C219.734 251.907 220.178 253.27 220.178 255.184V264H216.292V255.967C216.292 254.71 216.109 253.889 215.741 253.502C215.393 253.096 214.659 252.893 213.537 252.893H210.405V264H206.519V244.657H210.405ZM233.567 255.416V255.184C233.567 254.314 233.355 253.715 232.929 253.386C232.504 253.057 231.731 252.893 230.609 252.893H224.055V249.877H230.609C232.369 249.877 233.596 249.974 234.292 250.167C234.988 250.36 235.588 250.757 236.09 251.356C236.612 251.955 236.97 252.603 237.163 253.299C237.357 253.976 237.453 254.894 237.453 256.054V264H229.275C227.69 264 226.636 263.961 226.114 263.884C225.612 263.807 224.974 263.488 224.2 262.927C223.427 262.366 223.04 261.322 223.04 259.795C223.04 258.809 223.272 257.949 223.736 257.214C224.2 256.479 224.8 255.996 225.534 255.764C226.269 255.532 227.361 255.416 228.811 255.416H233.567ZM233.567 258.432H229.072H228.434C227.468 258.432 226.984 258.867 226.984 259.737C226.984 260.182 227.139 260.501 227.448 260.694C227.777 260.887 228.318 260.984 229.072 260.984H233.567V258.432ZM241.07 249.877H246.812C248.978 249.877 250.437 250.215 251.191 250.892C251.945 251.569 252.322 252.893 252.322 254.865V256.257H248.581V255.503C248.581 254.498 248.407 253.811 248.059 253.444C247.711 253.077 247.054 252.893 246.087 252.893H244.956V264H241.07V249.877ZM254.636 249.877H268.904C270.238 249.877 271.233 249.974 271.891 250.167C272.548 250.341 273.205 250.795 273.863 251.53C274.52 252.245 274.849 253.405 274.849 255.01V264H270.963V255.619C270.963 254.556 270.798 253.84 270.47 253.473C270.16 253.086 269.551 252.893 268.643 252.893H266.584V264H262.698V252.893H258.522V264H254.636V249.877ZM288.225 255.416V255.184C288.225 254.314 288.013 253.715 287.587 253.386C287.162 253.057 286.389 252.893 285.267 252.893H278.713V249.877H285.267C287.027 249.877 288.254 249.974 288.95 250.167C289.646 250.36 290.246 250.757 290.748 251.356C291.27 251.955 291.628 252.603 291.821 253.299C292.015 253.976 292.111 254.894 292.111 256.054V264H283.933C282.348 264 281.294 263.961 280.772 263.884C280.27 263.807 279.632 263.488 278.858 262.927C278.085 262.366 277.698 261.322 277.698 259.795C277.698 258.809 277.93 257.949 278.394 257.214C278.858 256.479 279.458 255.996 280.192 255.764C280.927 255.532 282.019 255.416 283.469 255.416H288.225ZM288.225 258.432H283.73H283.092C282.126 258.432 281.642 258.867 281.642 259.737C281.642 260.182 281.797 260.501 282.106 260.694C282.435 260.887 282.976 260.984 283.73 260.984H288.225V258.432ZM307.502 249.877V252.893H302.862C301.412 252.893 300.359 253.212 299.701 253.85C299.063 254.469 298.744 255.484 298.744 256.895C298.744 258.326 299.102 259.37 299.817 260.027C300.552 260.665 301.712 260.984 303.297 260.984H307.502V264H302.195C300.784 264 299.663 263.855 298.831 263.565C298 263.275 297.111 262.618 296.163 261.593C295.235 260.549 294.771 258.954 294.771 256.808C294.771 254.353 295.284 252.69 296.308 251.82C297.333 250.95 298.232 250.409 299.005 250.196C299.798 249.983 300.861 249.877 302.195 249.877H307.502ZM319.415 260.984V249.877H323.301V263.71C323.301 265.566 322.817 266.91 321.851 267.741C320.903 268.592 319.366 269.017 317.24 269.017H310.309V266.001H317.24C318.052 266.001 318.612 265.895 318.922 265.682C319.231 265.489 319.386 265.102 319.386 264.522L319.415 264H315.964C314.842 264 313.953 263.894 313.296 263.681C312.658 263.468 312.087 263.091 311.585 262.55C311.082 262.009 310.744 261.419 310.57 260.781C310.396 260.143 310.309 259.138 310.309 257.765V249.877H314.195V257.388C314.195 258.877 314.32 259.853 314.572 260.317C314.842 260.762 315.393 260.984 316.225 260.984H319.415Z" fill="#CC3967"/>
</svg>
